<svg id="Iconly_Bold_Location" data-name="Iconly/Bold/Location" xmlns="http://www.w3.org/2000/svg" width="40.5" height="47.564" viewBox="0 0 40.5 47.564">
  <g id="Location">
    <path id="Location-2" data-name="Location" d="M20.26,47.564a3.239,3.239,0,0,1-1.748-.589,51.216,51.216,0,0,1-13.2-12.226A24.67,24.67,0,0,1,0,19.782,19.409,19.409,0,0,1,5.963,5.788,20.341,20.341,0,0,1,20.234,0,20.051,20.051,0,0,1,40.5,19.782a24.683,24.683,0,0,1-5.313,14.968,52.186,52.186,0,0,1-13.2,12.226A3.147,3.147,0,0,1,20.26,47.564Zm-.027-33.825A6.671,6.671,0,0,0,13.566,20.4a6.443,6.443,0,0,0,1.957,4.648,6.7,6.7,0,0,0,4.711,1.9,6.6,6.6,0,1,0,0-13.206Z" fill="#fff"/>
  </g>
</svg>
