<svg id="Iconly_Bold_Calling" data-name="Iconly/Bold/Calling" xmlns="http://www.w3.org/2000/svg" width="51.504" height="51.504" viewBox="0 0 51.504 51.504">
  <g id="Group" transform="translate(29.353)">
    <g id="Calling" transform="translate(0)">
      <path id="Fill_1" data-name="Fill 1" d="M2.626.039a2.216,2.216,0,0,0-.841,4.352,8.915,8.915,0,0,1,7.066,7.082v0a2.212,2.212,0,0,0,2.165,1.791,2.4,2.4,0,0,0,.426-.039,2.227,2.227,0,0,0,1.744-2.6A13.325,13.325,0,0,0,2.626.039" transform="translate(0 8.948)" fill="#fff"/>
      <path id="Fill_3" data-name="Fill 3" d="M2.455.02A2.1,2.1,0,0,0,.845.473a2.222,2.222,0,0,0,1.118,3.95A17.8,17.8,0,0,1,17.738,20.232a2.207,2.207,0,0,0,2.19,1.969,2.059,2.059,0,0,0,.251-.015,2.182,2.182,0,0,0,1.48-.818,2.205,2.205,0,0,0,.467-1.629A22.188,22.188,0,0,0,2.455.02" transform="translate(0.01 0)" fill="#fff"/>
    </g>
  </g>
  <g id="Call" transform="translate(0 2.575)">
    <path id="Stroke_1" data-name="Stroke 1" d="M23.258,25.681c10.273,10.27,12.6-1.611,19.144,4.925,6.306,6.3,9.93,7.567,1.941,15.554-1,.8-7.359,10.48-29.7-11.859S1.961,5.594,2.766,4.594c8.009-8.009,9.25-4.364,15.555,1.94C24.862,13.073,12.986,15.411,23.258,25.681Z" transform="translate(0 0)" fill="#fff"/>
  </g>
</svg>
