<svg xmlns="http://www.w3.org/2000/svg" xmlns:xlink="http://www.w3.org/1999/xlink" width="391" height="316" viewBox="0 0 391 316">
  <defs>
    <clipPath id="clip-path">
      <rect id="Rectangle_2550" data-name="Rectangle 2550" width="391" height="316" transform="translate(1543 571)" fill="#fbd442"/>
    </clipPath>
  </defs>
  <g id="Mask_Group_158" data-name="Mask Group 158" transform="translate(-1543 -571)" clip-path="url(#clip-path)">
    <g id="Group_4752" data-name="Group 4752" transform="translate(1585.49 461.49)">
      <path id="Path_583" data-name="Path 583" d="M36.5,123.351c33.484-30.709,74.361-39.3,113.891-47.615,39.229-8.244,79.815-16.771,112.832-47.052s45.024-69.969,56.623-108.339c6.216-20.56,12.643-41.828,22.237-61.473l2.038,1c-9.5,19.479-15.914,40.649-22.094,61.138C310.331-40.33,298.247-.347,264.763,30.363S190.4,69.661,150.871,77.977C111.643,86.221,71.057,94.748,38.04,125.029S-6.985,195-18.573,233.38c-11.7,38.665-23.781,78.649-57.265,109.358l-1.529-1.667C-44.339,310.778-32.342,271.1-20.754,232.72c11.7-38.665,23.78-78.649,57.265-109.358Z" transform="translate(72.968 152.194)" fill="#fbd442"/>
      <path id="Path_584" data-name="Path 584" d="M41.615,127.468C74.75,97.079,115.2,88.579,154.328,80.361c38.819-8.158,78.981-16.6,111.653-46.561S310.537-35.438,322-73.42c6.151-20.347,12.511-41.391,22.005-60.832l2.018.987c-9.4,19.276-15.738,40.236-21.865,60.5C312.6-34.494,300.639,5.072,267.505,35.461S193.92,74.349,154.792,82.568c-38.819,8.158-78.981,16.6-111.654,46.561s-44.555,69.239-56.022,107.22c-11.564,38.273-23.522,77.838-56.657,108.228l-1.513-1.651C-38.37,312.951-26.5,273.688-15.032,235.706-3.468,197.433,8.49,157.867,41.625,127.479Z" transform="translate(81.214 156.384)" fill="#fbd442"/>
      <path id="Path_585" data-name="Path 585" d="M47.925,134.343c33.135-30.389,73.585-38.888,112.7-47.118,38.819-8.158,78.982-16.6,111.654-46.561s44.556-69.239,56.032-107.209c6.151-20.345,12.513-41.391,22.005-60.831l2.018.985c-9.4,19.276-15.748,40.225-21.865,60.5C318.9-27.629,306.939,11.937,273.805,42.326S200.22,81.214,161.1,89.444C122.283,97.6,82.121,106.039,49.448,136S4.894,205.243-6.573,243.224c-11.574,38.261-23.532,77.828-56.667,108.217l-1.513-1.65C-32.07,319.815-20.2,280.552-8.732,242.571,2.842,204.309,14.8,164.743,47.935,134.354Z" transform="translate(85.053 160.575)" fill="#fbd442"/>
      <path id="Path_586" data-name="Path 586" d="M54.238,141.227c33.135-30.389,73.585-38.888,112.7-47.118,38.819-8.158,78.981-16.6,111.655-46.561S323.15-21.69,334.626-59.66c6.151-20.346,12.513-41.391,22.005-60.832l2.018.985c-9.4,19.277-15.748,40.227-21.863,60.5C325.211-20.745,313.254,18.821,280.118,49.21S206.534,88.1,167.416,96.328c-38.819,8.158-78.981,16.6-111.654,46.561S11.207,212.127-.26,250.109c-11.574,38.262-23.532,77.827-56.667,108.217l-1.513-1.651C-25.757,326.7-13.886,287.437-2.419,249.455c11.574-38.262,23.532-77.828,56.667-108.217Z" transform="translate(88.901 164.769)" fill="#fbd442"/>
      <path id="Path_587" data-name="Path 587" d="M60.548,148.107c33.135-30.389,73.585-38.888,112.7-47.118,38.819-8.158,78.971-16.607,111.643-46.572S329.45-14.821,340.926-52.791c6.151-20.346,12.513-41.391,22.005-60.831l2.018.985c-9.4,19.276-15.748,40.226-21.865,60.5C331.512-13.876,319.554,25.69,286.418,56.079s-73.584,38.888-112.7,47.118C134.9,111.354,94.744,119.8,62.072,149.768S17.517,219.007,6.04,256.977C-5.524,295.25-17.492,334.805-50.627,365.194l-1.513-1.65c32.684-29.976,44.555-69.239,56.032-107.209,11.574-38.262,23.532-77.828,56.667-108.217Z" transform="translate(92.74 168.956)" fill="#fbd442"/>
      <path id="Path_588" data-name="Path 588" d="M66.852,154.98c33.135-30.389,73.585-38.888,112.7-47.118,38.818-8.158,78.982-16.6,111.654-46.561S335.763-7.937,347.241-45.908c6.151-20.346,12.511-41.391,22.005-60.831l2.017.985c-9.4,19.276-15.748,40.226-21.863,60.5C337.824-6.992,325.867,32.573,292.733,62.962s-73.586,38.888-112.7,47.118c-38.819,8.158-78.981,16.6-111.654,46.561S23.82,225.879,12.353,263.86C.779,302.122-11.179,341.688-44.314,372.077l-1.513-1.65c32.684-29.975,44.555-69.239,56.022-107.22,11.574-38.261,23.532-77.827,56.667-108.216Z" transform="translate(96.587 173.15)" fill="#fbd442"/>
      <path id="Path_589" data-name="Path 589" d="M73.161,161.861c33.135-30.389,73.585-38.888,112.7-47.118,38.82-8.158,78.971-16.607,111.645-46.572S342.063-1.068,353.539-39.038c6.153-20.346,12.513-41.391,22.007-60.832l2.017.985c-9.4,19.276-15.748,40.226-21.863,60.5C344.124-.123,332.167,39.443,299.031,69.832s-73.584,38.888-112.7,47.118c-38.819,8.158-78.971,16.607-111.644,46.572S30.13,232.76,18.653,270.73C7.089,309-4.879,348.559-38.014,378.947l-1.513-1.65C-6.844,347.321,5.027,308.059,16.5,270.088c11.574-38.261,23.532-77.828,56.667-108.217Z" transform="translate(100.426 177.336)" fill="#fbd442"/>
      <path id="Path_590" data-name="Path 590" d="M79.468,168.737c33.135-30.389,73.585-38.888,112.7-47.118,38.818-8.158,78.971-16.607,111.643-46.572S348.37,5.809,359.846-32.161C366-52.507,372.359-73.552,381.852-92.993l2.018.985c-9.4,19.276-15.748,40.226-21.865,60.5C350.432,6.754,338.472,46.32,305.338,76.709s-73.584,38.888-112.7,47.118c-38.818,8.158-78.98,16.6-111.653,46.561S36.427,239.626,24.96,277.606C13.386,315.869,1.427,355.434-31.707,385.823l-1.513-1.65C-.537,354.2,11.334,314.934,22.811,276.964,34.385,238.7,46.344,199.137,79.478,168.748Z" transform="translate(104.269 181.527)" fill="#fbd442"/>
      <path id="Path_591" data-name="Path 591" d="M85.775,175.613c33.135-30.389,73.585-38.888,112.7-47.118,38.82-8.158,78.972-16.607,111.645-46.572s44.554-69.238,56.032-107.209c6.151-20.346,12.511-41.391,22.005-60.832l2.017.985c-9.4,19.276-15.746,40.226-21.864,60.5C356.737,13.63,344.779,53.2,311.645,83.585s-73.586,38.888-112.7,47.118c-38.819,8.158-78.981,16.6-111.654,46.561S42.733,246.5,31.266,284.483C19.692,322.745,7.734,362.312-25.4,392.7l-1.513-1.65C5.77,361.074,17.641,321.812,29.118,283.841,40.692,245.58,52.65,206.013,85.785,175.624Z" transform="translate(108.112 185.717)" fill="#fbd442"/>
      <path id="Path_592" data-name="Path 592" d="M92.088,182.5c33.135-30.389,73.585-38.888,112.7-47.118,38.818-8.158,78.971-16.607,111.643-46.572S360.99,19.569,372.466-18.4c6.151-20.346,12.513-41.391,22.005-60.832l2.018.985c-9.4,19.276-15.738,40.237-21.865,60.5-11.573,38.262-23.531,77.828-56.666,108.217s-73.584,38.888-112.7,47.118c-38.82,8.158-78.972,16.607-111.645,46.572S49.057,253.4,37.58,291.366c-11.564,38.273-23.532,77.828-56.667,108.217l-1.513-1.65c32.684-29.975,44.555-69.239,56.032-107.209C47,252.451,58.964,212.9,92.1,182.508Z" transform="translate(111.96 189.912)" fill="#fbd442"/>
      <path id="Path_593" data-name="Path 593" d="M98.391,189.37c33.135-30.389,73.585-38.888,112.7-47.118,38.82-8.158,78.982-16.6,111.654-46.561S367.3,26.452,378.78-11.518c6.151-20.346,12.511-41.391,22.005-60.832l2.017.985c-9.4,19.276-15.737,40.237-21.864,60.5C369.363,27.4,357.406,66.963,324.272,97.352s-73.586,38.888-112.7,47.118c-38.818,8.158-78.981,16.6-111.654,46.561S55.36,260.269,43.892,298.25C32.318,336.512,20.36,376.079-12.775,406.467l-1.513-1.65C18.4,374.841,30.267,335.578,41.734,297.6,53.308,259.336,65.266,219.769,98.4,189.381Z" transform="translate(115.806 194.107)" fill="#fbd442"/>
      <path id="Path_594" data-name="Path 594" d="M104.7,196.25c33.135-30.389,73.585-38.888,112.7-47.118,38.82-8.158,78.971-16.607,111.644-46.572S373.6,33.322,385.079-4.649c6.153-20.346,12.513-41.391,22.007-60.832l2.017.985C399.7-45.219,393.355-24.269,387.239-4c-11.575,38.262-23.532,77.828-56.668,108.217s-73.584,38.888-112.7,47.118c-38.82,8.158-78.972,16.607-111.644,46.572S61.67,267.149,50.193,305.119C38.619,343.381,26.661,382.947-6.474,413.336l-1.513-1.65C24.7,381.711,36.568,342.447,48.045,304.477c11.574-38.261,23.532-77.828,56.667-108.216Z" transform="translate(119.646 198.293)" fill="#fbd442"/>
      <path id="Path_595" data-name="Path 595" d="M111,203.123c33.135-30.389,73.584-38.889,112.7-47.118,38.82-8.158,78.982-16.6,111.654-46.561S379.916,40.205,391.393,2.235C397.544-18.111,403.906-39.156,413.4-58.6l2.018.985c-9.4,19.276-15.738,40.237-21.865,60.5C381.978,41.15,370.018,80.716,336.884,111.1s-73.586,38.888-112.7,47.118c-38.818,8.158-78.971,16.607-111.643,46.572S67.983,274.032,56.506,312C44.942,350.277,32.973,389.83-.161,420.22l-1.513-1.651C31.009,388.594,42.88,349.33,54.347,311.35c11.564-38.274,23.532-77.828,56.667-108.217Z" transform="translate(123.493 202.487)" fill="#fbd442"/>
      <path id="Path_596" data-name="Path 596" d="M117.315,210c33.135-30.389,73.584-38.888,112.7-47.117,38.82-8.158,78.982-16.6,111.654-46.561S386.227,47.086,397.694,9.1c6.151-20.346,12.511-41.391,22.005-60.832l2.017.985c-9.4,19.276-15.746,40.226-21.863,60.5-11.575,38.262-23.532,77.828-56.666,108.217s-73.586,38.888-112.7,47.118c-38.818,8.158-78.981,16.6-111.654,46.562S74.274,280.891,62.807,318.872C51.242,357.145,39.274,396.7,6.14,427.089l-1.513-1.65C37.31,395.464,49.181,356.2,60.648,318.219,72.212,279.946,84.18,240.392,117.315,210Z" transform="translate(127.332 206.674)" fill="#fbd442"/>
      <path id="Path_597" data-name="Path 597" d="M123.622,216.88c33.135-30.389,73.585-38.889,112.7-47.118,38.82-8.158,78.971-16.607,111.645-46.572S392.523,53.951,404,15.981c6.153-20.346,12.513-41.391,22.007-60.832l2.016.985c-9.4,19.276-15.748,40.226-21.863,60.5-11.565,38.273-23.532,77.828-56.668,108.217s-73.584,38.888-112.7,47.118c-38.82,8.158-78.971,16.607-111.644,46.572S80.59,287.779,69.113,325.75c-11.564,38.273-23.532,77.827-56.667,108.217l-1.513-1.651c32.684-29.975,44.555-69.237,56.032-107.207,11.564-38.273,23.532-77.828,56.667-108.217Z" transform="translate(131.176 210.864)" fill="#fbd442"/>
      <path id="Path_598" data-name="Path 598" d="M129.934,223.763c33.135-30.388,73.584-38.888,112.7-47.118,38.818-8.158,78.971-16.607,111.643-46.572s44.556-69.239,56.032-107.209c6.151-20.346,12.513-41.391,22.005-60.832l2.018.985c-9.4,19.276-15.748,40.226-21.865,60.5C400.9,61.779,388.938,101.345,355.8,131.734s-73.586,38.888-112.7,47.118c-38.818,8.157-78.971,16.606-111.643,46.572S86.9,294.662,75.426,332.632c-11.574,38.262-23.532,77.828-56.667,108.217l-1.513-1.65C49.929,409.223,61.8,369.96,73.277,331.99c11.574-38.262,23.532-77.828,56.667-108.217Z" transform="translate(135.022 215.058)" fill="#fbd442"/>
      <path id="Path_599" data-name="Path 599" d="M136.241,230.638c33.134-30.388,73.585-38.888,112.7-47.116,38.82-8.158,78.971-16.607,111.645-46.573S405.142,67.711,416.62,29.741c6.151-20.346,12.511-41.391,22.005-60.832l2.017.985c-9.4,19.276-15.737,40.237-21.864,60.5C407.2,68.656,395.246,108.222,362.11,138.611s-73.584,38.888-112.7,47.118c-38.82,8.158-78.971,16.607-111.644,46.572S93.209,301.538,81.732,339.508C70.168,377.783,58.2,417.336,25.065,447.726l-1.513-1.651C56.236,416.1,68.107,376.836,79.584,338.866c11.564-38.273,23.532-77.827,56.667-108.216Z" transform="translate(138.865 219.249)" fill="#fbd442"/>
      <path id="Path_600" data-name="Path 600" d="M142.547,237.516c33.135-30.388,73.585-38.888,112.7-47.118,38.818-8.158,78.971-16.606,111.643-46.572s44.556-69.238,56.032-107.209c6.151-20.346,12.513-41.391,22.005-60.832l2.018.985C437.547-3.953,431.2,17,425.084,37.27c-11.573,38.262-23.531,77.828-56.666,108.217s-73.584,38.888-112.7,47.117c-38.82,8.158-78.972,16.607-111.645,46.572S99.516,308.415,88.039,346.385C76.475,384.658,64.507,424.214,31.372,454.6l-1.513-1.65c32.684-29.976,44.555-69.239,56.032-107.209,11.564-38.273,23.532-77.828,56.667-108.216Z" transform="translate(142.709 223.439)" fill="#fbd442"/>
      <path id="Path_601" data-name="Path 601" d="M148.851,244.387c33.134-30.388,73.584-38.888,112.7-47.116,38.82-8.158,78.982-16.6,111.654-46.562S417.762,81.471,429.24,43.5c6.151-20.346,12.511-41.391,22.005-60.832l2.017.985c-9.4,19.276-15.748,40.226-21.863,60.5-11.575,38.262-23.532,77.828-56.666,108.217s-73.586,38.888-112.7,47.118c-38.818,8.158-78.981,16.6-111.654,46.561s-44.554,69.237-56.022,107.219C82.788,391.541,70.82,431.1,37.685,461.485l-1.513-1.65C68.856,429.86,80.727,390.6,92.194,352.615c11.564-38.273,23.532-77.827,56.667-108.217Z" transform="translate(146.556 227.634)" fill="#fbd442"/>
      <path id="Path_602" data-name="Path 602" d="M155.161,251.269c33.134-30.388,73.584-38.888,112.7-47.118,38.82-8.158,78.982-16.6,111.654-46.561s44.554-69.239,56.021-107.22c6.153-20.346,12.513-41.391,22.007-60.832l2.017.985c-9.4,19.276-15.748,40.226-21.863,60.5-11.575,38.262-23.532,77.828-56.668,108.217s-73.584,38.888-112.7,47.117c-38.82,8.158-78.971,16.607-111.645,46.572s-44.554,69.239-56.031,107.209C89.078,398.4,77.12,437.967,43.985,468.355l-1.513-1.65c32.684-29.976,44.555-69.239,56.022-107.22C110.068,321.224,122.026,281.657,155.161,251.269Z" transform="translate(150.395 231.82)" fill="#fbd442"/>
      <path id="Path_603" data-name="Path 603" d="M161.474,258.151c33.136-30.388,73.586-38.888,112.7-47.118,38.818-8.158,78.971-16.606,111.643-46.571s44.556-69.239,56.032-107.209C448,36.907,454.366,15.863,463.858-3.578l2.018.985c-9.4,19.276-15.748,40.226-21.865,60.5-11.573,38.262-23.532,77.828-56.666,108.217s-73.586,38.888-112.7,47.118c-38.818,8.158-78.98,16.6-111.654,46.561s-44.554,69.237-56.021,107.219C95.391,405.283,83.433,444.85,50.3,475.238l-1.513-1.65c32.684-29.975,44.555-69.239,56.032-107.209,11.574-38.262,23.532-77.828,56.666-108.217Z" transform="translate(154.242 236.015)" fill="#fbd442"/>
    </g>
  </g>
</svg>
